# xmcd
#
# Track frame offsets: 
#        150
#        9318
#        21477
#        34090
#        44548
#        55108
#        65968
#        86899
#        99656
#        112803
#        125165
#
# Disc length: 1828 seconds
#
# Revision: 0
# Processed by: cddbd v1.5.2PL0 Copyright (c) Steve Scherf et al.
# Submitted via: ExactAudioCopy v0.95b3
#
DISCID=9907220b
DTITLE=The Ventures  - Hawaii Five O  FLAC
DYEAR=1900
DGENRE=
TTITLE0=Hawaii Five-O
TTITLE1=Lovin' Things
TTITLE2=Galveston
TTITLE3=The Letter
TTITLE4=Don't Give In To Him
TTITLE5=Theme From "A Summer Place"
TTITLE6=Medley: Spooky, Traces, Stormy
TTITLE7=Medley: Aquarius - Let The Sunshine In
TTITLE8=Games People Play
TTITLE9=I Can Hear Music
TTITLE10=Dizzy
EXTD=
EXTT0=
EXTT1=
EXTT2=
EXTT3=
EXTT4=
EXTT5=
EXTT6=
EXTT7=
EXTT8=
EXTT9=
EXTT10=
PLAYORDER=
